# AST/ASF file generated using VICON BodyLanguage
# -----------------------------------------------
:version 1.10
:name VICON
:units
  mass 1.0
  length 0.45
  angle deg
:documentation
   .ast/.asf automatically generated from VICON data using
   VICON BodyBuilder and BodyLanguage model FoxedUp or BRILLIANT.MOD
:root
   order TX TY TZ RX RY RZ
   axis XYZ
   position 0 0 0  
   orientation 0 -0 0 
:bonedata
  begin
     id 1 
     name lhipjoint
     direction 0.515797 -0.759363 0.396637 
     length 2.47888 
     axis 0 -0 0  XYZ
  end
  begin
     id 2 
     name lfemur
     direction 0.34202 -0.939693 0  
     length 6.81885  
     axis 0 -0 20  XYZ
    dof rx ry rz
    limits (-160.0 20.0)
           (-70.0 70.0)
           (-60.0 70.0)
  end
  begin
     id 3 
     name ltibia
     direction 0.342037 -0.939687 0   
     length 7.89258   
     axis 0 -0 20   XYZ
    dof rx
    limits (-10.0 170.0)
  end
  begin
     id 4 
     name lfoot
     direction 0.173497 -0.476678 0.861787   
     length 2.51543   
     axis -90 -1.13533e-015 20   XYZ
    dof rx rz
    limits (-45.0 90.0)
           (-70.0 20.0)
  end
  begin
     id 5 
     name ltoes
     direction 1.53564e-011 -4.21897e-011 1   
     length 1.21388   
     axis -90 -1.13533e-015 20   XYZ
    dof rx
    limits (-90.0 20.0)
  end
  begin
     id 6 
     name rhipjoint
     direction -0.489454 -0.772941 0.403729   
     length 2.43534  
     axis 0 -0 0  XYZ 
  end
  begin
     id 7 
     name rfemur
     direction -0.34202 -0.939693 0   
     length 7.10357   
     axis 0 -0 -20   XYZ
    dof rx ry rz
    limits (-160.0 20.0)
           (-70.0 70.0)
           (-70.0 60.0)
  end
  begin
     id 8 
     name rtibia
     direction -0.34202 -0.939693 0   
     length 9.16127   
     axis 0 -0 -20   XYZ
    dof rx
    limits (-10.0 170.0)
 end
 begin
     id 9 
     name rfoot
     direction -0.270974 -0.748671 0.605033   
     length 1.74894  
     axis -90 1.13533e-015 -20   XYZ
    dof rx rz
    limits (-45.0 90.0)
           (-20.0 70.0)
  end
  begin
     id 10 
     name rtoes
     direction -1.53557e-011 -4.21759e-011 1   
     length 0.787585   
     axis -90 1.13533e-015 -20   XYZ
    dof rx
    limits (-90.0 20.0)
  end
  begin
     id 11 
     name lowerback
     direction -0.0140249 0.999561 0.0260968   
     length 2.16963   
     axis 0 -0 0   XYZ
    dof rx ry rz
    limits (-20.0 45.0)
           (-30.0 30.0)
           (-30.0 30.0)
  end
  begin
     id 12 
     name upperback
     direction 0.00860018 0.999959 -0.002711   
     length 2.1726   
     axis 0 -0 0   XYZ
    dof rx ry rz
    limits (-20.0 45.0)
           (-30.0 30.0)
           (-30.0 30.0)
  end
  begin
     id 13 
     name thorax
     direction 0.015211 0.999782 -0.0143191   
     length 2.17061   
     axis 0 -0 0   XYZ
    dof rx ry rz
    limits (-20.0 45.0)
           (-30.0 30.0)
           (-30.0 30.0)
  end
  begin
     id 14 
     name lowerneck
     direction -0.0140143 0.999447 0.030145   
     length 2.26749   
     axis 0 -0 0   XYZ
    dof rx ry rz
    limits (-20.0 45.0)
           (-30.0 30.0)
           (-30.0 30.0)
  end
  begin
     id 15 
     name upperneck
     direction 0.118062 0.961438 -0.248392   
     length 2.22728   
     axis 0 -0 0   XYZ
    dof rx ry rz
    limits (-20.0 45.0)
           (-30.0 30.0)
           (-30.0 30.0)
  end
  begin
     id 16
     name head
     direction 0.0431885 0.9954 -0.085514  
     length 2.28786  
     axis 0 -0 0   XYZ
    dof rx ry rz
    limits (-20.0 45.0)
           (-30.0 30.0)
           (-30.0 30.0)
  end
  begin
     id 17 
     name lclavicle
     direction 0.912126 0.409548 0.0172323  
     length 4.31571  
     axis 0 -0 0   XYZ
    dof ry rz
    limits (-20.0 10.0)
           (0.0 20.0)
  end
  begin
     id 18 
     name lhumerus
     direction 1 -4.48977e-011 1.93091e-027   
     length 5.13658   
     axis 180 -30 -90   XYZ
    dof rx ry rz
    limits (-60.0 90.0)
           (-90.0 90.0)
           (-90.0 90.0)
  end
  begin
     id 19
     name lradius
     direction 1 -4.48916e-011 6.84018e-027   
     length 3.22473   
     axis 180 -30 -90   XYZ
    dof rx
    limits (-10.0 170.0)
  end
  begin
     id 20
     name lwrist
     direction 1 -4.48987e-011 7.01981e-027   
     length 1.61236   
     axis -4.37994e-015 90 90   XYZ
    dof ry
    limits (-180.0 0.0)
 end
  begin
     id 21 
     name lhand
     direction 1 -4.49037e-011 1.40335e-026   
     length 0.936406   
     axis -8.96029e-015 90 90   XYZ
    dof rx rz
    limits (-90.0 90.0)
           (-45.0 45.0)
  end
  begin
     id 22 
     name lfingers
     direction 1 -4.48886e-011 2.8104e-026   
     length 0.754955   
     axis -1.79203e-014 90 90   XYZ
    dof rx
    limits (0.0 90.0)
  end
  begin
     id 23
     name lthumb
     direction 0.707107 -6.34937e-011 0.707107   
     length 1.08397   
     axis -90 45 -4.48555e-014   XYZ
    dof rx rz
    limits (-45.0 45.0)
           (-45.0 45.0)
  end
  begin
     id 24 
     name rclavicle
     direction -0.947962 0.317997 0.0156638   
     length 4.86918  
     axis 0 -0 0   XYZ 
    dof ry rz
    limits (-10.0 20.0)
           (-20.0 0.0)
  end
  begin
     id 25 
     name rhumerus
     direction -1 -4.48951e-011 2.80534e-018  
     length 5.60911   
     axis 180 30 90   XYZ
    dof rx ry rz
    limits (-90.0 60.0)
           (-90.0 90.0)
           (-90.0 90.0)
  end
  begin
     id 26 
     name rradius
     direction -1 -4.4898e-011 2.11315e-027   
     length 3.38704   
     axis 180 30 90   XYZ
    dof rx
    limits (-10.0 170.0)
  end
  begin
     id 27 
     name rwrist
     direction -1 -4.48933e-011 7.02314e-027   
     length 1.69352   
     axis -4.37994e-015 -90 -90   XYZ
    dof ry
    limits (-180.0 0.0)
  end
  begin
     id 28
     name rhand
     direction -1 -4.48937e-011 1.40458e-026   
     length 0.755878   
     axis -8.96029e-015 -90 -90   XYZ
    dof rx rz
    limits (-90.0 90.0)
           (-45.0 45.0)
  end
  begin
     id 29
     name rfingers
     direction -1 -4.4901e-011 2.80737e-026   
     length 0.609409   
     axis -1.79203e-014 -90 -90   XYZ
    dof rx
    limits (0.0 90.0)
  end
  begin
     id 30
     name rthumb
     direction -0.707107 -6.34968e-011 0.707107   
     length 0.874992   
     axis -90 -45 4.48555e-014   XYZ
    dof rx rz
    limits (-45.0 45.0)
           (-45.0 45.0)
  end
:hierarchy
  begin
    root lhipjoint rhipjoint lowerback
    lhipjoint lfemur
    lfemur ltibia
    ltibia lfoot
    lfoot ltoes
    rhipjoint rfemur
    rfemur rtibia
    rtibia rfoot
    rfoot rtoes
    lowerback upperback
    upperback thorax
    thorax lowerneck lclavicle rclavicle
    lowerneck upperneck
    upperneck head
    lclavicle lhumerus
    lhumerus lradius
    lradius lwrist
    lwrist lhand lthumb
    lhand lfingers
    rclavicle rhumerus
    rhumerus rradius
    rradius rwrist
    rwrist rhand rthumb
    rhand rfingers
  end

#!OML:ASF C:\ViconDB\ViconDB\414\Spring2016\041811\Spring2016.ASF
:FULLY-SPECIFIED
:DEGREES
93
root 6.74063 16.9613 15.0534 -168.434 -5.64056 -181.647
lowerback 13.6439 -3.9925 -4.23326
upperback 0.926698 -6.11616 -0.239851
thorax -6.23289 -2.94341 3.25546
lowerneck -15.493 -5.24222 -15.6509
upperneck 10.8581 -6.44243 21.0634
head 7.17102 -1.96198 9.06555
rclavicle -5.32743e-014 -2.70347e-014
rhumerus -80.7003 1.86607 -91.3925
rradius 85.4924
rwrist 3.69357
rhand -32.1429 -12.346
rfingers 7.12502
rthumb -5.38671 -42.2575
lclavicle -5.32743e-014 -2.70347e-014
lhumerus -19.8296 -28.7084 91.5915
lradius 115.408
lwrist -14.2027
lhand -38.2498 8.20297
lfingers 7.12502
lthumb -11.2802 37.8797
rfemur -63.451 -11.7753 25.7562
rtibia 94.785
rfoot -165.496 -0.280589
rtoes -8.62132
lfemur -0.536119 -8.09533 -24.3413
ltibia 38.8785
lfoot -21.3861 -4.28188
ltoes -27.1098
94
root 6.75095 17.0371 14.5455 -168.42 -5.3666 -180.915
lowerback 13.1754 -4.22483 -3.77111
upperback 0.637929 -6.28118 0.14176
thorax -6.27064 -3.01329 3.39979
lowerneck -15.9013 -5.01896 -15.4249
upperneck 11.5058 -6.17669 20.7948
head 7.37291 -1.81408 8.98488
rclavicle -1.36565e-013 -6.36111e-015
rhumerus -82.8016 2.12302 -91.5107
rradius 86.1895
rwrist 3.58309
rhand -31.8808 -11.9887
rfingers 7.12502
rthumb -5.13368 -41.9065
lclavicle -1.36565e-013 -6.36111e-015
lhumerus -19.9914 -29.9019 90.2433
lradius 118.007
lwrist -15.0577
lhand -38.8109 8.21374
lfingers 7.12502
lthumb -11.8213 37.8601
rfemur -63.7054 -9.89638 26.7744
rtibia 90.541
rfoot -166.106 0.495856
rtoes -8.41352
lfemur 2.20304 -9.15103 -23.8249
ltibia 36.3707
lfoot -18.2241 -3.54063
ltoes -27.553
95
root 6.75169 17.1288 14.0221 -168.353 -4.86096 -180.34
lowerback 12.9652 -4.50066 -2.84889
upperback 0.078903 -6.48472 0.0601293
thorax -6.84378 -3.10181 2.85373
lowerneck -16.1094 -4.7455 -14.863
upperneck 12.3759 -5.9715 20.7373
head 7.62509 -1.65056 8.92777
rclavicle 5.24792e-014 8.74653e-015
rhumerus -85.0383 1.90647 -91.9031
rradius 86.4578
rwrist 5.02841
rhand -31.8999 -11.5112
rfingers 7.12502
rthumb -5.15205 -41.4286
lclavicle 5.24792e-014 8.74653e-015
lhumerus -21.1777 -31.0506 88.7467
lradius 120.145
lwrist -16.4987
lhand -39.5661 7.92766
lfingers 7.12502
lthumb -12.5494 37.5308
rfemur -63.3987 -8.17886 27.3085
rtibia 85.7881
rfoot -166.028 1.80581
rtoes -7.72319
lfemur 4.813 -10.0619 -23.709
ltibia 33.98
lfoot -14.4164 -2.36624
ltoes -27.9485
96
root 6.75383 17.2279 13.4928 -168.322 -4.34014 -179.66
lowerback 12.2829 -4.55598 -2.7253
upperback -0.0442568 -6.4609 0.698608
thorax -6.53134 -3.08712 3.38918
lowerneck -16.7289 -4.62946 -15.0542
upperneck 12.9139 -5.74162 20.4935
head 7.85678 -1.54222 8.92878
rclavicle 9.74045e-015 1.19271e-014
rhumerus -86.18 2.06388 -91.0665
rradius 87.111
rwrist 4.69872
rhand -30.912 -10.562
rfingers 7.12502
rthumb -4.19814 -40.5004
lclavicle 9.74045e-015 1.19271e-014
lhumerus -21.8446 -31.7308 88.1498
lradius 121.664
lwrist -17.8931
lhand -40.4015 7.29183
lfingers 7.12502
lthumb -13.3548 36.8438
rfemur -62.6576 -6.70079 27.9653
rtibia 80.8248
rfoot -165.419 3.26242
rtoes -6.78927
lfemur 7.15854 -10.9819 -23.5261
ltibia 31.8109
lfoot -9.33372 -0.910751
ltoes -26.6283
97
root 6.74808 17.3305 12.9491 -168.335 -3.75737 -179.089
lowerback 11.741 -4.64073 -2.15755
upperback -0.312947 -6.45326 0.93763
thorax -6.54734 -3.08933 3.28811
lowerneck -17.1133 -4.4713 -14.7776
upperneck 13.6131 -5.58014 20.1851
head 8.09787 -1.44665 8.81854
rclavicle 9.26337e-014 3.97569e-015
rhumerus -87.2357 1.80346 -90.5072
rradius 87.531
rwrist 5.04833
rhand -30.5506 -10.3432
rfingers 7.12502
rthumb -3.84914 -40.2882
lclavicle 9.26337e-014 3.97569e-015
lhumerus -23.3805 -32.5101 87.5778
lradius 122.773
lwrist -19.0146
lhand -41.0489 6.66322
lfingers 7.12502
lthumb -13.9787 36.1732
rfemur -61.5159 -5.70317 28.5533
rtibia 75.7994
rfoot -164.292 4.63247
rtoes -5.82777
lfemur 9.32927 -11.94 -23.697
ltibia 29.8019
lfoot -2.93349 1.71618
ltoes -25.3117
98
root 6.7327 17.4284 12.3878 -168.274 -3.07066 -178.784
lowerback 10.9472 -4.68961 -1.58979
upperback -0.589674 -6.41645 0.957464
thorax -6.45646 -3.0856 2.92926
lowerneck -17.303 -4.30776 -14.364
upperneck 14.2495 -5.45376 19.8949
head 8.2904 -1.36476 8.68213
rclavicle -6.42074e-014 1.31198e-014
rhumerus -87.9859 1.27823 -89.8702
rradius 87.8073
rwrist 5.5335
rhand -30.2096 -9.7345
rfingers 7.12502
rthumb -3.51989 -39.6852
lclavicle -6.42074e-014 1.31198e-014
lhumerus -25.5048 -33.2952 87.4236
lradius 123.49
lwrist -19.3535
lhand -41.1477 6.06188
lfingers 7.12502
lthumb -14.074 35.5653
rfemur -60.219 -5.12047 28.9038
rtibia 70.946
rfoot -162.555 6.14005
rtoes -5.38793
lfemur 11.1436 -12.6835 -24.2229
ltibia 28.1277
lfoot 2.9564 5.06756
ltoes -23.251
99
root 6.72627 17.523 11.8299 -168.197 -2.35233 -178.416
lowerback 9.91208 -4.55743 -1.59914
upperback -0.662732 -6.19947 1.43187
thorax -5.9077 -2.98648 3.29885
lowerneck -17.511 -4.25601 -14.5924
upperneck 14.5417 -5.31907 19.7104
head 8.39498 -1.32616 8.68718
rclavicle 7.85199e-014 -1.47101e-014
rhumerus -88.0783 1.00805 -88.6242
rradius 88.173
rwrist 5.88146
rhand -29.9697 -9.4157
rfingers 7.12502
rthumb -3.28819 -39.3701
lclavicle 7.85199e-014 -1.47101e-014
lhumerus -27.5091 -33.8929 88.1075
lradius 123.667
lwrist -18.3217
lhand -41.1947 4.77363
lfingers 7.12502
lthumb -14.1192 34.2739
rfemur -58.7358 -4.82863 29.5977
rtibia 66.3305
rfoot -161.332 7.05379
rtoes -4.82641
lfemur 12.5058 -12.8472 -24.4234
ltibia 27.0197
lfoot 7.97262 7.92523
ltoes -19.7162
100
root 6.72669 17.6068 11.2674 -168.146 -1.60934 -178.504
lowerback 8.99814 -4.43117 -1.76527
upperback -0.854479 -6.02811 1.55055
thorax -5.5752 -2.90114 3.41438
lowerneck -17.6465 -4.21224 -14.5126
upperneck 15.1106 -5.2841 19.4303
head 8.58594 -1.31742 8.60071
rclavicle -3.3694e-014 -1.19271e-015
rhumerus -88.188 0.401854 -87.6347
rradius 88.6594
rwrist 5.98251
rhand -29.9901 -9.4607
rfingers 7.12502
rthumb -3.30787 -39.4148
lclavicle -3.3694e-014 -1.19271e-015
lhumerus -30.2037 -34.4352 89.0088
lradius 123.585
lwrist -17.1349
lhand -40.1147 4.74705
lfingers 7.12502
lthumb -13.0784 34.317
rfemur -57.1888 -4.90058 29.8809
rtibia 62.294
rfoot -160.906 8.0798
rtoes -4.90091
lfemur 13.4569 -12.5058 -24.8631
ltibia 26.6326
lfoot 12.6618 9.88004
ltoes -16.4007
101
root 6.71436 17.6746 10.7275 -168.202 -0.883423 -178.865
lowerback 8.49028 -4.24888 -2.1274
upperback -1.11099 -5.80916 1.62999
thorax -5.5289 -2.77844 3.63772
lowerneck -17.5506 -4.19466 -14.6267
upperneck 15.5171 -5.2631 19.2885
head 8.69505 -1.3272 8.59051
rclavicle -6.59468e-014 1.74931e-014
rhumerus -88.0949 -0.171447 -86.6245
rradius 89.2616
rwrist 5.46072
rhand -29.9714 -9.56657
rfingers 7.12502
rthumb -3.28979 -39.5209
lclavicle -6.59468e-014 1.74931e-014
lhumerus -33.3779 -34.8833 90.6844
lradius 122.663
lwrist -17.926
lhand -40.0521 6.6721
lfingers 7.12502
lthumb -13.018 36.2459
rfemur -55.6668 -5.50472 30.0395
rtibia 58.9703
rfoot -160.054 8.64617
rtoes -4.3665
lfemur 13.8612 -12.1473 -25.6968
ltibia 27.2958
lfoot 16.909 11.4017
ltoes -11.77
102
root 6.7024 17.719 10.1934 -168.401 -0.092522 -179.41
lowerback 8.14881 -4.11442 -2.45922
upperback -1.33669 -5.66322 1.45765
thorax -5.56967 -2.693 3.60687
lowerneck -17.4198 -4.10516 -14.4749
upperneck 15.8937 -5.19555 19.1248
head 8.7718 -1.29765 8.52769
rclavicle 5.69021e-014 -1.25234e-014
rhumerus -87.7396 -0.836689 -86.1641
rradius 89.537
rwrist 6.16851
rhand -30.8712 -9.97957
rfingers 7.12502
rthumb -4.15872 -39.9187
lclavicle 5.69021e-014 -1.25234e-014
lhumerus -36.5541 -34.5858 92.0614
lradius 121.692
lwrist -14.782
lhand -38.731 4.57153
lfingers 7.12502
lthumb -11.7442 34.2223
rfemur -54.1234 -6.24452 29.9318
rtibia 56.4825
rfoot -159.285 8.92545
rtoes -5.1407
lfemur 13.8571 -11.3406 -26.5923
ltibia 28.9344
lfoot 20.5668 12.1461
ltoes -5.98422
103
root 6.68439 17.7403 9.66982 -168.726 0.549397 -179.916
lowerback 7.38085 -3.82347 -3.05228
upperback -1.11278 -5.29633 1.62048
thorax -4.85924 -2.51305 3.98483
lowerneck -17.4715 -4.2375 -14.8944
upperneck 15.8637 -5.26156 18.9848
head 8.78913 -1.37972 8.53895
rclavicle -1.88845e-015 -2.03754e-014
rhumerus -86.3857 -1.69021 -85.111
rradius 90.0614
rwrist 5.31942
rhand -30.9821 -10.4215
rfingers 7.12502
rthumb -4.26588 -40.3585
lclavicle -1.88845e-015 -2.03754e-014
lhumerus -38.9242 -34.0735 93.9366
lradius 119.957
lwrist -13.6117
lhand -37.3297 4.44797
lfingers 7.12502
lthumb -10.3927 34.1711
rfemur -52.5305 -7.36587 29.9118
rtibia 54.7638
rfoot -158.575 9.04984
rtoes -4.98685
lfemur 13.4071 -10.3084 -27.2699
ltibia 31.5805
lfoot 23.1725 11.9775
ltoes -0.462614
104
root 6.67298 17.7394 9.14889 -169.244 1.18498 -180.332
lowerback 6.99465 -3.62449 -3.49508
upperback -0.975188 -5.05565 1.66229
thorax -4.47697 -2.39521 4.21183
lowerneck -17.3407 -4.21285 -14.8938
upperneck 15.8839 -5.19798 18.6565
head 8.7458 -1.39425 8.41816
rclavicle -8.3738e-015 -8.74653e-015
rhumerus -85.091 -2.32261 -84.7063
rradius 90.7205
rwrist 4.34585
rhand -31.0596 -11.0829
rfingers 7.12502
rthumb -4.34072 -41.0184
lclavicle -8.3738e-015 -8.74653e-015
lhumerus -41.5735 -32.8989 95.6269
lradius 117.575
lwrist -13.8346
lhand -36.5821 4.51115
lfingers 7.12502
lthumb -9.67142 34.2691
rfemur -50.7184 -8.56131 29.8736
rtibia 53.7151
rfoot -158.311 8.86897
rtoes -5.65465
lfemur 12.7203 -8.85382 -27.592
ltibia 35.0325
lfoot 24.2597 10.799
ltoes 1.1059
